<?xml version="1.0" encoding="UTF-8"?>
<svg version="1.1" xmlns="http://www.w3.org/2000/svg" width="180" height="180">
<path d="M0 0 C0.9773241 -0.00657338 0.9773241 -0.00657338 1.97439212 -0.01327956 C4.16763859 -0.026683 6.36084488 -0.03284983 8.55412292 -0.03897095 C10.12264183 -0.04687066 11.69115891 -0.05513953 13.25967407 -0.06375122 C18.41924805 -0.08998502 23.57883021 -0.10527953 28.7384491 -0.11953735 C30.51333306 -0.12489635 32.28821696 -0.13027385 34.06310081 -0.13566971 C41.44484281 -0.15729982 48.8265826 -0.17603744 56.20834827 -0.1872921 C66.79436757 -0.20353729 77.38002016 -0.2367272 87.9659012 -0.29369295 C95.40544864 -0.33236528 102.84489788 -0.35192153 110.28454322 -0.35721266 C114.72987883 -0.36086967 119.17482345 -0.37292768 123.62005043 -0.4053154 C127.80212662 -0.43534891 131.98357428 -0.44172503 136.16573524 -0.42993164 C137.70042766 -0.42971051 139.23514883 -0.43804827 140.76974106 -0.45558548 C142.86621406 -0.4782392 144.96040044 -0.470004 147.05688477 -0.45410156 C148.22957318 -0.45741171 149.4022616 -0.46072186 150.61048603 -0.46413231 C154.76481064 0.36184928 156.21971996 1.77105181 158.71891785 5.15390015 C159.34533024 8.22995472 159.34533024 8.22995472 159.34710693 11.7375946 C159.35420132 12.38550703 159.36129571 13.03341945 159.36860508 13.70096558 C159.38615973 15.86467913 159.36809625 18.02658999 159.35002136 20.1902771 C159.35516139 21.74452531 159.3624433 23.2987677 159.3717041 24.85299683 C159.39022071 29.07026504 159.37727637 33.28690109 159.3576138 37.504143 C159.34121921 41.92200462 159.35004173 46.33982645 159.35513306 50.75770569 C159.35965454 58.17983075 159.34378439 65.60170386 159.31584167 73.02377319 C159.28382486 81.5938371 159.28379157 90.16344571 159.30105644 98.73354179 C159.31694778 106.98663092 159.31016894 115.23955381 159.29311943 123.49263573 C159.28626264 127.00004716 159.28726737 130.50732478 159.29466438 134.01473427 C159.30235298 138.15091568 159.29011773 142.28658231 159.26281548 146.42267609 C159.25595608 147.93672089 159.25580734 149.45081399 159.26303101 150.9648571 C159.30102163 159.96832473 159.12199371 167.05145429 152.9728241 174.17733765 C152.41466003 174.62335327 151.85649597 175.0693689 151.28141785 175.52890015 C150.72583191 175.99038452 150.17024597 176.4518689 149.5978241 176.92733765 C145.33311759 179.71136643 141.61660019 180.40618258 136.56628418 180.42805481 C135.32856766 180.43802994 134.09085114 180.44800507 132.81562805 180.45828247 C131.4517671 180.45917819 130.08790597 180.4598418 128.7240448 180.46029663 C127.28141859 180.46792195 125.83879643 180.47635009 124.3961792 180.48551941 C120.48269762 180.50743884 116.56929417 180.51626024 112.65575814 180.52134585 C110.20748934 180.52499346 107.75924088 180.53123573 105.31097984 180.53834724 C96.76018249 180.5628361 88.20944573 180.57589172 79.65861511 180.57943726 C71.70431611 180.58306867 63.75040388 180.61293698 55.79622298 180.65484184 C48.95524481 180.6896107 42.11439436 180.70498686 35.27332848 180.70568329 C31.19285334 180.70647408 27.11277207 180.71512034 23.03238869 180.74368095 C19.19001699 180.76997417 15.34836246 180.77200503 11.50594139 180.75602531 C10.10235904 180.7542195 8.69873438 180.76082267 7.29524231 180.77684402 C-1.15072008 180.86731341 -8.32482832 180.35925707 -15.28108215 175.15390015 C-19.65281461 169.8291359 -21.40268072 165.07033699 -21.42152405 158.17689514 C-21.42723419 156.92773315 -21.43294434 155.67857117 -21.43882751 154.39155579 C-21.44007286 153.00463877 -21.44119796 151.61772164 -21.44221497 150.23080444 C-21.44684362 148.77213414 -21.45186835 147.31346505 -21.45726013 145.85479736 C-21.47038178 141.88982303 -21.47682866 137.92486562 -21.48127079 133.95987296 C-21.48420196 131.4825065 -21.48830686 129.00514467 -21.49277496 126.52778053 C-21.50644943 118.77609614 -21.51611627 111.02442233 -21.51997685 103.27272671 C-21.5244573 94.32564008 -21.5420047 85.37870625 -21.57097745 76.43166608 C-21.59259687 69.51521768 -21.60268128 62.59881226 -21.60401797 55.68233043 C-21.60506584 51.55175295 -21.61096963 47.42131911 -21.62883759 43.29077721 C-21.64532278 39.40426885 -21.6474717 35.51801204 -21.63869858 31.63148117 C-21.63792843 30.2068788 -21.64226801 28.78226288 -21.65215683 27.35769463 C-21.66488728 25.409123 -21.65720383 23.46045019 -21.64857483 21.51185608 C-21.65004139 20.42250606 -21.65150795 19.33315603 -21.65301895 18.2107954 C-20.90594917 12.07073588 -17.82219298 8.15440254 -13.28108215 4.15390015 C-8.48233661 1.0291356 -5.74016654 0.02730206 0 0 Z M-3.08953857 18.49018097 C-4.99844918 21.15553979 -4.63931322 23.59761474 -4.62165833 26.82846069 C-4.62209641 27.50189514 -4.62253448 28.17532959 -4.62298584 28.86917114 C-4.62089716 31.09328284 -4.59756366 33.31663903 -4.5740509 35.5406189 C-4.5684552 37.08332406 -4.56418498 38.62603455 -4.56118774 40.16874695 C-4.54973686 44.22787206 -4.52026785 48.28667481 -4.48707581 52.34567261 C-4.45638002 56.4880843 -4.44268347 60.63054811 -4.42756653 64.77304077 C-4.39539815 72.90014178 -4.34419913 81.02698086 -4.28108215 89.15390015 C-3.01987297 89.15603767 -3.01987297 89.15603767 -1.73318481 89.15821838 C6.19753641 89.17606099 14.12770038 89.21771144 22.05815411 89.28599072 C26.13517271 89.32025617 30.2118168 89.34536991 34.28898621 89.34945679 C38.22507869 89.35374085 42.1603264 89.38221091 46.09615517 89.42733192 C47.59636829 89.44030376 49.09668254 89.44461566 50.59694481 89.44005394 C52.70192099 89.43514497 54.80443083 89.4612449 56.90910339 89.49447632 C58.10601303 89.50113815 59.30292267 89.50779999 60.53610229 89.5146637 C64.7391131 90.35879609 66.19882928 91.71802382 68.71891785 95.15390015 C69.3581543 98.3367157 69.3581543 98.3367157 69.37834167 101.9637146 C69.38882538 102.62768753 69.39930908 103.29166046 69.41011047 103.97575378 C69.4387683 106.15671047 69.43258102 108.33607089 69.4259491 110.5171814 C69.43906998 112.03463217 69.45437542 113.55206548 69.47177124 115.06947327 C69.51158951 119.0528893 69.52180954 123.03584813 69.52580261 127.0194397 C69.53514018 131.08848919 69.57255753 135.15727072 69.60758972 139.22616577 C69.67213307 147.2020822 69.70539965 155.17773478 69.71891785 163.15390015 C78.51586277 163.24658806 87.31263956 163.31765861 96.10996628 163.36114883 C100.19496154 163.38202226 104.27962269 163.41033478 108.36442566 163.45565796 C112.3066613 163.49912545 116.24857562 163.5230391 120.19103241 163.53340912 C121.69496469 163.54079896 123.19887942 163.55522981 124.70267487 163.57682037 C126.80971244 163.60586827 128.91542313 163.60985586 131.02262878 163.60800171 C132.22175903 163.61688416 133.42088928 163.6257666 134.65635681 163.63491821 C138.4264044 163.04277948 139.36849143 162.10186169 141.71891785 159.15390015 C142.30497201 156.60322226 142.30497201 156.60322226 142.19993591 153.77554321 C142.20543457 152.68461868 142.21093323 151.59369415 142.21659851 150.4697113 C142.20221741 149.27784714 142.1878363 148.08598297 142.17301941 146.85800171 C142.17360352 145.599207 142.17418762 144.34041229 142.17478943 143.04347229 C142.17593684 139.59524327 142.15242397 136.14757111 142.1244936 132.69947147 C142.09948407 129.09468982 142.09713832 125.48989531 142.09239197 121.88504028 C142.07996081 115.06039351 142.04713752 108.23600311 142.00699401 101.41146922 C141.96228048 93.64130662 141.94029035 85.87113175 141.92021227 78.10087252 C141.87840484 62.11839992 141.80805032 46.1361831 141.71891785 30.15390015 C137.39724916 33.78106168 133.25542295 37.49616639 129.27433777 41.50082397 C128.53147522 42.24587692 128.53147522 42.24587692 127.77360535 43.00598145 C126.71292237 44.07043209 125.65339447 45.13603481 124.59494591 46.20270729 C122.9202077 47.89033486 121.24225501 49.57470803 119.56347656 51.25831604 C116.0082867 54.82485862 112.45707815 58.39534892 108.90641785 61.96640015 C104.77255797 66.12387256 100.63707616 70.27970488 96.49738503 74.43137169 C94.84344185 76.09180142 93.19253377 77.75520919 91.54171753 79.41874695 C90.53346727 80.43062761 89.52507754 81.44236933 88.51652527 82.45394897 C87.6360704 83.33964066 86.75561554 84.22533234 85.84848022 85.13786316 C83.28303836 87.56654322 82.36743992 88.09750692 78.84391785 88.40390015 C75.29660347 88.120115 74.05029039 87.83066121 71.71891785 85.15390015 C70.71891785 81.84140015 70.71891785 81.84140015 70.71891785 78.15390015 C73.28964049 73.70012576 76.48312449 70.11337614 80.13005066 66.53158569 C80.65732758 66.00562302 81.18460449 65.47966034 81.7278595 64.9377594 C83.45468112 63.21737821 85.18836774 61.50409087 86.92204285 59.7906189 C88.12752872 58.59140853 89.33249749 57.39167815 90.53697205 56.19145203 C93.69571557 53.04596261 96.85999419 49.90610661 100.02592468 46.76785278 C105.10850927 41.72853578 110.18422536 36.68232164 115.25684357 31.63297462 C117.03166286 29.86841002 118.80983532 28.10727598 120.58836365 26.34645081 C121.66747603 25.2741611 122.74648184 24.20176413 123.82536316 23.12924194 C124.57334671 22.39136444 124.57334671 22.39136444 125.33644104 21.63858032 C126.48302934 20.49586607 127.60406831 19.32759989 128.71891785 18.15390015 C128.71891785 17.82390015 128.71891785 17.49390015 128.71891785 17.15390015 C111.82085702 17.08386394 94.92284139 17.03093848 78.02466869 16.99846363 C70.17880595 16.98298518 62.33303331 16.96187709 54.48722839 16.92758179 C47.64997416 16.89770924 40.81278518 16.87833226 33.9754675 16.87163466 C30.35408886 16.86771873 26.73289689 16.85849573 23.11157799 16.83670998 C19.07199649 16.81260439 15.03274092 16.81192876 10.99308777 16.81332397 C9.78827759 16.80253815 8.58346741 16.79175232 7.34214783 16.78063965 C5.6952018 16.78682564 5.6952018 16.78682564 4.01498413 16.7931366 C3.05908481 16.79037122 2.10318548 16.78760584 1.11831951 16.78475666 C-1.32608063 16.9704399 -1.32608063 16.9704399 -3.08953857 18.49018097 Z " fill="#CEAFDD" transform="translate(21.281082153320313,-0.153900146484375)"/>
<path d="M0 0 C0.67544861 -0.0087616 1.35089722 -0.01752319 2.04681396 -0.02655029 C4.26885132 -0.04847103 6.48888166 -0.03402082 8.7109375 -0.01708984 C10.26123434 -0.02046017 11.81152859 -0.02531459 13.36181641 -0.03158569 C16.6067019 -0.03894698 19.85089795 -0.0282766 23.09570312 -0.00488281 C27.2489408 0.02360583 31.40056301 0.00719768 35.55374146 -0.02274513 C38.75378527 -0.04083902 41.95344793 -0.03505079 45.15350342 -0.02210617 C46.68447055 -0.01877787 48.21547262 -0.02283903 49.74639893 -0.03450394 C51.8891524 -0.04724882 54.02931399 -0.02779228 56.171875 0 C57.3892334 0.00397797 58.6065918 0.00795593 59.86083984 0.01205444 C64.09702048 0.84602244 65.55494367 2.18079123 68.0859375 5.64697266 C68.71412659 8.83410645 68.71412659 8.83410645 68.71704102 12.46923828 C68.72419632 13.13493332 68.73135162 13.80062836 68.73872375 14.48649597 C68.75556442 16.67611367 68.73623952 18.86367013 68.71484375 21.05322266 C68.7156729 22.5810971 68.71813401 24.10897144 68.72215271 25.63684082 C68.72500749 28.83466531 68.71034207 32.03178815 68.68286133 35.22949219 C68.648778 39.32203552 68.65479917 43.41332465 68.6735239 47.50592804 C68.68410853 50.6596313 68.67514302 53.81304429 68.66013908 56.96672058 C68.65496747 58.47534828 68.65542668 59.98400642 68.66168404 61.49263 C68.66715442 63.60398189 68.64670772 65.71355775 68.61938477 67.82470703 C68.61318619 69.02430054 68.60698761 70.22389404 68.6006012 71.45983887 C67.98666324 75.26174371 66.75425546 76.92195155 64.0859375 79.64697266 C61.24510109 81.06739086 59.23116472 80.96149538 56.0859375 80.64697266 C53.78318194 78.77987355 52.40769879 77.29049525 51.0859375 74.64697266 C50.96867091 73.25879593 50.90912344 71.86548551 50.88061523 70.47265625 C50.8506974 69.18154434 50.8506974 69.18154434 50.82017517 67.86434937 C50.80346268 66.93409943 50.78675018 66.00384949 50.76953125 65.04541016 C50.74875015 64.09381012 50.72796906 63.14221008 50.70655823 62.16177368 C50.64105617 59.11524834 50.5821747 56.06863522 50.5234375 53.02197266 C50.48025291 50.9594635 50.43663864 48.89696329 50.39257812 46.83447266 C50.2853741 41.77206311 50.18410848 36.7095651 50.0859375 31.64697266 C49.37627838 32.35885239 48.66661926 33.07073212 47.93545532 33.80418396 C41.25755662 40.50232662 34.57704005 47.19784832 27.89393044 53.89079189 C24.45790656 57.33204138 21.02282199 60.77421784 17.58984375 64.21850586 C14.27876448 67.54042534 10.96527085 70.85991857 7.65006638 74.17772102 C6.38368233 75.44595726 5.11818087 76.71507541 3.85356522 77.985075 C2.08648645 79.75937918 0.31633716 81.53056329 -1.45458984 83.30102539 C-2.24329216 84.09512062 -2.24329216 84.09512062 -3.04792786 84.90525818 C-7.66388919 89.50806451 -7.66388919 89.50806451 -11.7265625 89.95947266 C-15.76618106 89.56343162 -17.21135405 88.65856208 -19.9140625 85.64697266 C-20.9765625 82.27197266 -20.9765625 82.27197266 -20.9140625 78.64697266 C-18.33454528 74.19602709 -15.14596581 70.59842599 -11.50292969 67.00878906 C-10.71201431 66.21743561 -10.71201431 66.21743561 -9.90512085 65.41009521 C-8.17842919 63.68478579 -6.44478508 61.96665049 -4.7109375 60.24853516 C-3.50552391 59.04685563 -2.30055403 57.84473086 -1.0960083 56.6421814 C2.06256563 53.49121291 5.22710111 50.34629926 8.39294434 47.20263672 C11.62758607 43.98852013 14.85651425 40.76867479 18.0859375 37.54931641 C24.41371288 31.2429364 30.7478053 24.94294242 37.0859375 18.64697266 C35.77923096 18.64286377 34.47252441 18.63875488 33.1262207 18.63452148 C28.27100355 18.61272462 23.41659616 18.55842864 18.56176758 18.49438477 C16.46191172 18.4712097 14.3619397 18.45681021 12.26196289 18.45141602 C9.24031225 18.44212303 6.22048733 18.40112419 3.19921875 18.35400391 C2.26257889 18.35793655 1.32593903 18.3618692 0.36091614 18.36592102 C-4.18328779 18.26454834 -6.28125859 18.1227369 -10.00708008 15.3215332 C-11.9140625 12.64697266 -11.9140625 12.64697266 -12.5390625 9.14697266 C-11.2579844 1.97293529 -6.82203627 0.02229239 0 0 Z " fill="#7E429C" transform="translate(111.9140625,-0.64697265625)"/>
</svg>
