<?xml version="1.0" encoding="UTF-8"?>
<svg version="1.1" xmlns="http://www.w3.org/2000/svg" width="48" height="48">
<path d="M0 0 C1.21911575 0.00666183 1.21911575 0.00666183 2.46286011 0.01345825 C3.38366364 0.01360931 4.30446716 0.01376038 5.25317383 0.01391602 C6.2490451 0.02423859 7.24491638 0.03456116 8.27096558 0.04519653 C9.28915375 0.04802643 10.30734192 0.05085632 11.35638428 0.05377197 C14.61709208 0.06499133 17.87752791 0.09009907 21.13815308 0.11550903 C23.34518037 0.12553656 25.55221195 0.13466281 27.75924683 0.14285278 C33.1773088 0.16493636 38.59521151 0.19843108 44.01315308 0.24050903 C44.06374697 6.75496108 44.09884164 13.26936271 44.12301636 19.78396606 C44.13309132 22.00143324 44.14675167 24.21888708 44.16403198 26.43630981 C44.18821471 29.61847215 44.19962104 32.80045928 44.20846558 35.98269653 C44.21878815 36.97856781 44.22911072 37.97443909 44.23974609 39.00048828 C44.23997269 40.38169357 44.23997269 40.38169357 44.24020386 41.790802 C44.24464508 42.60354584 44.2490863 43.41628967 44.25366211 44.25366211 C44.01315308 46.24050903 44.01315308 46.24050903 42.01315308 48.24050903 C40.11569214 48.49447632 40.11569214 48.49447632 37.77877808 48.4992981 C36.90447144 48.50560242 36.03016479 48.51190674 35.12936401 48.5184021 C33.7105896 48.51232941 33.7105896 48.51232941 32.26315308 48.50613403 C31.29410034 48.50804749 30.32504761 48.50996094 29.32662964 48.51193237 C27.27552023 48.51329482 25.22440222 48.50959421 23.17330933 48.50125122 C20.02597768 48.49055263 16.87921687 48.50114457 13.73190308 48.51394653 C11.74231848 48.51262495 9.75273424 48.51006258 7.76315308 48.50613403 C6.34437866 48.51220673 6.34437866 48.51220673 4.89694214 48.5184021 C4.0226355 48.51209778 3.14832886 48.50579346 2.24752808 48.4992981 C1.47634644 48.49770691 0.70516479 48.49611572 -0.08938599 48.49447632 C-1.98684692 48.24050903 -1.98684692 48.24050903 -3.98684692 46.24050903 C-4.24081421 44.3430481 -4.24081421 44.3430481 -4.24563599 42.00613403 C-4.25194031 41.13182739 -4.25824463 40.25752075 -4.26473999 39.35671997 C-4.26069153 38.41087036 -4.25664307 37.46502075 -4.25247192 36.49050903 C-4.25438538 35.5214563 -4.25629883 34.55240356 -4.25827026 33.5539856 C-4.25963272 31.50287619 -4.2559321 29.45175818 -4.24758911 27.40066528 C-4.23689052 24.25333364 -4.24748246 21.10657283 -4.26028442 17.95925903 C-4.25896284 15.96967443 -4.25640047 13.98009019 -4.25247192 11.99050903 C-4.25652039 11.04465942 -4.26056885 10.09880981 -4.26473999 9.1242981 C-4.25843567 8.24999146 -4.25213135 7.37568481 -4.24563599 6.47488403 C-4.2440448 5.70370239 -4.24245361 4.93252075 -4.24081421 4.13796997 C-3.8648044 1.32869503 -2.79626708 0.33848984 0 0 Z M1.01315308 5.24050903 C1.01315308 11.18050903 1.01315308 17.12050903 1.01315308 23.24050903 C6.89169187 23.5297181 6.89169187 23.5297181 12.77072144 23.80862427 C13.49912231 23.84673218 14.22752319 23.88484009 14.97799683 23.92410278 C16.10129395 23.97908936 16.10129395 23.97908936 17.24728394 24.03518677 C19.01315308 24.24050903 19.01315308 24.24050903 20.01315308 25.24050903 C20.16897611 26.58066124 20.2635945 27.92809807 20.32955933 29.27566528 C20.38672119 30.3682666 20.38672119 30.3682666 20.44503784 31.48294067 C20.48814087 32.41356323 20.5312439 33.34418579 20.57565308 34.30300903 C20.72002808 37.25238403 20.86440308 40.20175903 21.01315308 43.24050903 C26.95315308 43.24050903 32.89315308 43.24050903 39.01315308 43.24050903 C39.01315308 32.35050903 39.01315308 21.46050903 39.01315308 10.24050903 C34.50352645 14.10590329 30.60302848 17.6044173 26.68893433 21.92019653 C25.01315308 23.24050903 25.01315308 23.24050903 21.01315308 23.24050903 C21.59255485 19.94172193 22.54955327 18.3478689 24.95455933 16.04129028 C25.53786011 15.47216919 26.12116089 14.9030481 26.72213745 14.31668091 C27.33379761 13.73466919 27.94545776 13.15265747 28.57565308 12.55300903 C30.74011878 10.46560284 32.88367331 8.36406535 35.01315308 6.24050903 C35.01315308 5.91050903 35.01315308 5.58050903 35.01315308 5.24050903 C23.79315308 5.24050903 12.57315308 5.24050903 1.01315308 5.24050903 Z " fill="#CEAFDD" transform="translate(3.986846923828125,-0.240509033203125)"/>
<path d="M0 0 C6.93 0 13.86 0 21 0 C21 6.6 21 13.2 21 20 C19.68 20.33 18.36 20.66 17 21 C15.41727399 19.41727399 15.65264253 17.61965997 15.4375 15.4375 C15.31181641 14.19806641 15.31181641 14.19806641 15.18359375 12.93359375 C15.12300781 12.29550781 15.06242187 11.65742188 15 11 C14.11957031 11.95003906 13.23914063 12.90007813 12.33203125 13.87890625 C11.15966552 15.10754554 9.98644348 16.33536814 8.8125 17.5625 C8.23435547 18.19091797 7.65621094 18.81933594 7.06054688 19.46679688 C5.43653327 21.14586179 3.91755001 22.66443015 2 24 C-0.92578125 23.90234375 -0.92578125 23.90234375 -3 23 C-2.4194679 19.69881206 -1.45131901 18.08865924 0.94140625 15.765625 C1.81635742 14.90517578 1.81635742 14.90517578 2.70898438 14.02734375 C3.32064453 13.44082031 3.93230469 12.85429687 4.5625 12.25 C5.17802734 11.64800781 5.79355469 11.04601562 6.42773438 10.42578125 C7.94514813 8.94365619 9.47170596 7.4709033 11 6 C7.7 5.67 4.4 5.34 1 5 C0.67 3.35 0.34 1.7 0 0 Z " fill="#7F439C" transform="translate(27,0)"/>
</svg>
