<?xml version="1.0" encoding="UTF-8"?>
<svg version="1.1" xmlns="http://www.w3.org/2000/svg" width="48" height="48">
<path d="M0 0 C1.38541992 0.00483398 1.38541992 0.00483398 2.79882812 0.00976562 C4.17844727 -0.0144043 4.17844727 -0.0144043 5.5859375 -0.0390625 C6.91141602 -0.0400293 6.91141602 -0.0400293 8.26367188 -0.04101562 C9.07312256 -0.04399658 9.88257324 -0.04697754 10.71655273 -0.05004883 C12.86132812 0.32226562 12.86132812 0.32226562 14.62597656 1.55761719 C16.20786237 3.81727541 16.23471635 5.17546958 16.22460938 7.91992188 C16.22396484 8.80357422 16.22332031 9.68722656 16.22265625 10.59765625 C16.20654297 11.51740234 16.19042969 12.43714844 16.17382812 13.38476562 C16.17866211 14.77018555 16.17866211 14.77018555 16.18359375 16.18359375 C16.12837986 23.05521389 16.12837986 23.05521389 13.86132812 25.32226562 C11.73828125 25.58105469 11.73828125 25.58105469 9.14257812 25.58789062 C8.21058594 25.59046875 7.27859375 25.59304687 6.31835938 25.59570312 C5.34253906 25.58796875 4.36671875 25.58023438 3.36132812 25.57226562 C2.38550781 25.58 1.4096875 25.58773437 0.40429688 25.59570312 C-0.52769531 25.593125 -1.4596875 25.59054688 -2.41992188 25.58789062 C-3.27650391 25.58563477 -4.13308594 25.58337891 -5.015625 25.58105469 C-7.13867188 25.32226562 -7.13867188 25.32226562 -9.13867188 23.32226562 C-9.39746094 21.19921875 -9.39746094 21.19921875 -9.40429688 18.60351562 C-9.406875 17.67152344 -9.40945313 16.73953125 -9.41210938 15.77929688 C-9.404375 14.80347656 -9.39664062 13.82765625 -9.38867188 12.82226562 C-9.39640625 11.84644531 -9.40414063 10.870625 -9.41210938 9.86523438 C-9.40953125 8.93324219 -9.40695312 8.00125 -9.40429688 7.04101562 C-9.40204102 6.18443359 -9.39978516 5.32785156 -9.39746094 4.4453125 C-8.74228815 -0.92957671 -4.25590867 0.03419649 0 0 Z " fill="#D0B1DE" transform="translate(9.138671875,22.677734375)"/>
<path d="M0 0 C1.21911575 0.00666183 1.21911575 0.00666183 2.46286011 0.01345825 C3.38366364 0.01360931 4.30446716 0.01376038 5.25317383 0.01391602 C6.2490451 0.02423859 7.24491638 0.03456116 8.27096558 0.04519653 C9.28915375 0.04802643 10.30734192 0.05085632 11.35638428 0.05377197 C14.61709208 0.06499133 17.87752791 0.09009907 21.13815308 0.11550903 C23.34518037 0.12553656 25.55221195 0.13466281 27.75924683 0.14285278 C33.17740534 0.16323713 38.59497381 0.20238267 44.01315308 0.24050903 C44.01315308 7.17050903 44.01315308 14.10050903 44.01315308 21.24050903 C43.02315308 21.57050903 42.03315308 21.90050903 41.01315308 22.24050903 C40.35315308 21.91050903 39.69315308 21.58050903 39.01315308 21.24050903 C38.59909058 18.73660278 38.59909058 18.73660278 38.38815308 15.67800903 C38.31338745 14.66609497 38.23862183 13.65418091 38.16159058 12.61160278 C38.1126062 11.82914185 38.06362183 11.04668091 38.01315308 10.24050903 C37.40842163 10.8845166 37.40842163 10.8845166 36.79147339 11.54153442 C34.96182552 13.47496042 33.11301132 15.3889196 31.26315308 17.30300903 C30.62893433 17.97912231 29.99471558 18.6552356 29.34127808 19.35183716 C28.41315308 20.30413208 28.41315308 20.30413208 27.46627808 21.27566528 C26.61791382 22.16330566 26.61791382 22.16330566 25.75241089 23.06887817 C24.01315308 24.24050903 24.01315308 24.24050903 21.79733276 23.92581177 C21.20855347 23.69966187 20.61977417 23.47351196 20.01315308 23.24050903 C20.59368518 19.9393211 21.56183406 18.32916827 23.95455933 16.00613403 C24.53786011 15.43250122 25.12116089 14.85886841 25.72213745 14.26785278 C26.33379761 13.68132935 26.94545776 13.09480591 27.57565308 12.49050903 C28.19118042 11.88851685 28.80670776 11.28652466 29.44088745 10.66629028 C30.9583012 9.18416522 32.48485904 7.71141233 34.01315308 6.24050903 C23.02571572 4.96660325 12.05640776 5.1474479 1.01315308 5.24050903 C1.01315308 10.85050903 1.01315308 16.46050903 1.01315308 22.24050903 C-0.63684692 22.57050903 -2.28684692 22.90050903 -3.98684692 23.24050903 C-4.04473699 19.78224562 -4.08040513 16.3241061 -4.11184692 12.86550903 C-4.12860474 11.88066528 -4.14536255 10.89582153 -4.16262817 9.88113403 C-4.16907349 8.94011841 -4.1755188 7.99910278 -4.18215942 7.02957153 C-4.19263306 6.16026001 -4.20310669 5.29094849 -4.21389771 4.39529419 C-3.90313356 1.44604219 -2.97919048 0.36063283 0 0 Z M21.01315308 1.24050903 C22.01315308 3.24050903 22.01315308 3.24050903 22.01315308 3.24050903 Z " fill="#80459D" transform="translate(3.986846923828125,-0.240509033203125)"/>
<path d="M0 0 C1.49249268 0.01571045 1.49249268 0.01571045 3.01513672 0.03173828 C4.6296875 0.04140625 4.6296875 0.04140625 6.27685547 0.05126953 C7.40478516 0.06802734 8.53271484 0.08478516 9.69482422 0.10205078 C11.39832031 0.11558594 11.39832031 0.11558594 13.13623047 0.12939453 C15.94763721 0.1530198 18.7586272 0.18596065 21.56982422 0.22705078 C21.23982422 1.21705078 20.90982422 2.20705078 20.56982422 3.22705078 C21.22982422 3.55705078 21.88982422 3.88705078 22.56982422 4.22705078 C21.56982422 5.22705078 21.56982422 5.22705078 19.52856445 5.34057617 C18.65401611 5.33533936 17.77946777 5.33010254 16.87841797 5.32470703 C15.93417969 5.32148437 14.98994141 5.31826172 14.01708984 5.31494141 C13.02386719 5.3065625 12.03064453 5.29818359 11.00732422 5.28955078 C10.01023437 5.28503906 9.01314453 5.28052734 7.98583984 5.27587891 C5.51380935 5.26405101 3.0418095 5.24611494 0.56982422 5.22705078 C0.56982422 10.83705078 0.56982422 16.44705078 0.56982422 22.22705078 C-1.08017578 22.55705078 -2.73017578 22.88705078 -4.43017578 23.22705078 C-4.48806585 19.76878736 -4.52373399 16.31064785 -4.55517578 12.85205078 C-4.57193359 11.86720703 -4.58869141 10.88236328 -4.60595703 9.86767578 C-4.61240234 8.92666016 -4.61884766 7.98564453 -4.62548828 7.01611328 C-4.63596191 6.14680176 -4.64643555 5.27749023 -4.65722656 4.38183594 C-4.31314656 1.11640572 -3.21173482 0.30007167 0 0 Z " fill="#CFB1DE" transform="translate(4.43017578125,-0.22705078125)"/>
<path d="M0 0 C1.65 0 3.3 0 5 0 C5.05785647 3.95827235 5.09354717 7.9164367 5.125 11.875 C5.14175781 13.00292969 5.15851562 14.13085938 5.17578125 15.29296875 C5.18222656 16.36933594 5.18867187 17.44570313 5.1953125 18.5546875 C5.20578613 19.54968262 5.21625977 20.54467773 5.22705078 21.56982422 C5 24 5 24 3 26 C0.84521484 26.22705078 0.84521484 26.22705078 -1.7890625 26.1953125 C-2.73007812 26.18886719 -3.67109375 26.18242188 -4.640625 26.17578125 C-5.62546875 26.15902344 -6.6103125 26.14226563 -7.625 26.125 C-8.61757813 26.11597656 -9.61015625 26.10695313 -10.6328125 26.09765625 C-13.08878134 26.07404116 -15.54427168 26.04110799 -18 26 C-17.67 24.35 -17.34 22.7 -17 21 C-11.39 21 -5.78 21 0 21 C0 14.07 0 7.14 0 0 Z " fill="#CFB0DE" transform="translate(43,22)"/>
</svg>
