<?xml version="1.0" encoding="UTF-8"?>
<svg version="1.1" xmlns="http://www.w3.org/2000/svg" width="180" height="180">
<path d="M0 0 C0.72407043 -0.00511093 1.44814087 -0.01022186 2.19415283 -0.01548767 C4.58337715 -0.02936721 6.97231247 -0.02842819 9.36157227 -0.02612305 C11.0253968 -0.03001086 12.68922034 -0.0343457 14.3530426 -0.03910828 C17.83907286 -0.04656693 21.32500183 -0.04628177 24.81103516 -0.04101562 C29.27442235 -0.03522113 33.73739457 -0.05215303 38.20071316 -0.0753603 C41.63656532 -0.09010462 45.07231769 -0.0909684 48.50819588 -0.08785057 C50.15360397 -0.08836342 51.7990177 -0.09359441 53.44439507 -0.10366249 C55.74705717 -0.11602353 58.04891294 -0.10923787 60.3515625 -0.09765625 C61.66076157 -0.09828568 62.96996063 -0.0989151 64.3188324 -0.0995636 C67.97537414 0.30034849 69.83311797 1.06923034 72.74047852 3.2746582 C76.42005065 8.39977653 76.8654516 12.6338495 76.91748047 18.84399414 C76.92405167 19.4949707 76.93062286 20.14594727 76.93739319 20.81665039 C76.95705061 22.96411267 76.96877249 25.11150522 76.97875977 27.2590332 C76.98283529 27.99559395 76.98691082 28.73215469 76.99110985 29.49103546 C77.01193954 33.39058651 77.02625397 37.2901027 77.03564453 41.18969727 C77.04669584 45.20223537 77.08108923 49.21421693 77.12081623 53.22655869 C77.14705345 56.32538838 77.15534266 59.42408691 77.15892601 62.52301788 C77.16377453 64.00130212 77.17533878 65.47958119 77.193964 66.95775604 C77.36885979 81.75943176 77.36885979 81.75943176 72.74047852 88.2746582 C68.79556511 91.25160951 65.85433457 91.66000992 60.96582031 91.69458008 C60.30494415 91.70304962 59.64406799 91.71151917 58.96316528 91.72024536 C56.78847757 91.74355432 54.61450022 91.74463885 52.43969727 91.7434082 C50.91900859 91.75051502 49.39832259 91.75821478 47.87763977 91.76647949 C44.69260201 91.77991135 41.50781203 91.78149967 38.32275391 91.77563477 C34.25733174 91.76974873 30.19310797 91.80028901 26.12791729 91.84075165 C22.98700141 91.86670985 19.84637067 91.86949863 16.70536232 91.86585999 C15.2075481 91.86754459 13.70971977 91.87712332 12.21201134 91.89500427 C-2.38586194 92.05007686 -2.38586194 92.05007686 -7.63459778 87.90216064 C-8.1708226 87.36508484 -8.70704742 86.82800903 -9.25952148 86.2746582 C-9.84702682 85.69037048 -10.43453217 85.10608276 -11.0398407 84.50408936 C-16.67883391 77.63009368 -16.09857014 69.68520946 -15.98608398 61.2590332 C-15.9850448 59.71445722 -15.98608786 58.16987857 -15.98910522 56.62530518 C-15.9889267 53.40417476 -15.96825444 50.18405523 -15.93188477 46.96313477 C-15.88635685 42.84153136 -15.88545842 38.72139172 -15.89892006 34.59960556 C-15.90560959 31.41671807 -15.89232397 28.23416263 -15.87266159 25.0513382 C-15.86498571 23.53155505 -15.86264948 22.01173492 -15.86583328 20.49193573 C-15.86657749 18.36899086 -15.84126961 16.24790818 -15.80883789 14.12524414 C-15.79962311 12.91995056 -15.79040833 11.71465698 -15.78091431 10.47283936 C-15.04907692 5.98380838 -13.11389055 3.61188133 -9.46324158 0.97932434 C-6.27197777 -0.04112084 -3.34768292 0.01178848 0 0 Z " fill="#CFB0DE" transform="translate(15.259521484375,88.725341796875)"/>
<path d="M0 0 C0.68520218 -0.0071553 1.37040436 -0.01431061 2.07637024 -0.02168274 C4.33089828 -0.03852794 6.58342576 -0.0191953 8.83789062 0.00219727 C10.41060551 0.00136816 11.98332031 -0.00109278 13.55603027 -0.00511169 C16.84800378 -0.00796679 20.13929582 0.00670226 23.43115234 0.03417969 C27.64475256 0.0682629 31.85713461 0.06224205 36.07079315 0.04351711 C39.3171397 0.03293386 42.5632042 0.04189679 45.80952454 0.05690193 C47.36280987 0.06207454 48.91612478 0.06161312 50.46940613 0.05535698 C52.64300568 0.04988833 54.81487864 0.0703284 56.98828125 0.09765625 C58.22340454 0.10385483 59.45852783 0.11005341 60.7310791 0.11643982 C64.70641439 0.74344631 66.34571317 1.60135974 68.99414062 4.63110352 C69.62232971 7.81860352 69.62232971 7.81860352 69.62524414 11.63110352 C69.63239944 12.32751953 69.63955475 13.02393555 69.64692688 13.74145508 C69.66380705 16.03867619 69.64441862 18.33394363 69.62304688 20.63110352 C69.62387565 22.23006349 69.62633537 23.82902338 69.63035583 25.42797852 C69.63321333 28.77719809 69.61851836 32.12574872 69.59106445 35.47485352 C69.55698089 39.76592322 69.56299984 44.05579687 69.58172703 48.34692383 C69.59230046 51.64813183 69.58335625 54.94906197 69.56834221 58.25024414 C69.5631624 59.83226699 69.56363978 61.41431889 69.56988716 62.99633789 C69.57534389 65.20856011 69.55495354 67.41907583 69.52758789 69.63110352 C69.52138931 70.88922852 69.51519073 72.14735352 69.50880432 73.44360352 C68.90178657 77.20308585 67.99860136 78.36601571 64.99414062 80.63110352 C61.36850396 81.7882216 59.7315166 81.96627441 56.24414062 80.38110352 C53.72840051 78.42441676 52.1606421 76.84556069 51.71566772 73.59992981 C51.70234406 72.82493637 51.68902039 72.04994293 51.67529297 71.25146484 C51.65542328 70.37077835 51.63555359 69.49009186 51.61508179 68.5827179 C51.60353058 67.63575546 51.59197937 66.68879303 51.58007812 65.71313477 C51.56071198 64.74075363 51.54134583 63.7683725 51.52139282 62.76652527 C51.46158512 59.65897408 51.41520673 56.55138586 51.36914062 53.44360352 C51.33096196 51.33746752 51.29191029 49.23134715 51.25195312 47.12524414 C51.15588252 41.96065747 51.07185571 36.7959977 50.99414062 31.63110352 C50.28448151 32.34298325 49.57482239 33.05486298 48.84365845 33.78831482 C42.16575975 40.48645748 35.48524318 47.18197918 28.80213356 53.87492275 C25.36610969 57.31617224 21.93102511 60.7583487 18.49804688 64.20263672 C15.1869676 67.5245562 11.87347397 70.84404943 8.5582695 74.16185188 C7.29188546 75.43008812 6.026384 76.69920627 4.76176834 77.96920586 C2.99468957 79.74351004 1.22454029 81.51469415 -0.54638672 83.28515625 C-1.33508904 84.07925148 -1.33508904 84.07925148 -2.13972473 84.88938904 C-6.75568607 89.49219537 -6.75568607 89.49219537 -10.81835938 89.94360352 C-14.85797794 89.54756248 -16.30315092 88.64269294 -19.00585938 85.63110352 C-20.25585938 82.38110352 -20.25585938 82.38110352 -20.00585938 78.63110352 C-14.97078517 71.11742512 -7.35466208 64.85160836 -0.94726562 58.47485352 C0.20880225 57.32065457 1.36464669 56.16623179 2.52027893 55.01159668 C5.53797393 51.99768944 8.5586615 48.98679949 11.58001709 45.9765625 C14.67237209 42.89450277 17.7618393 39.80955119 20.8515625 36.72485352 C26.89629174 30.69079547 32.94419069 24.65992709 38.99414062 18.63110352 C38.42895218 18.63189911 37.86376373 18.6326947 37.28144836 18.6335144 C31.39223707 18.63595449 25.5043426 18.5967353 19.61547852 18.53344727 C17.41860067 18.51529259 15.22160863 18.50771779 13.0246582 18.51098633 C9.86384838 18.51384485 6.705404 18.47851402 3.54492188 18.43579102 C2.56453445 18.44488495 1.58414703 18.45397888 0.5740509 18.46334839 C-6.06631726 18.32220229 -6.06631726 18.32220229 -8.74795532 16.34967041 C-10.92501289 13.8579824 -11.96984243 11.80758656 -12.63085938 8.56860352 C-11.16672062 1.68715137 -6.46894122 0.00503721 0 0 Z " fill="#7E429C" transform="translate(111.005859375,-0.631103515625)"/>
<path d="M0 0 C1.18571594 -0.00021904 1.18571594 -0.00021904 2.39538574 -0.0004425 C5.00881695 0.0002543 7.62217694 0.00803584 10.2355957 0.01586914 C12.04734763 0.01773415 13.85910005 0.01915766 15.67085266 0.02015686 C20.44004711 0.02397554 25.20921113 0.03380031 29.97839355 0.04486084 C34.84472237 0.0550889 39.71105611 0.05965747 44.57739258 0.06469727 C54.12623408 0.07542313 63.67505299 0.09249179 73.22387695 0.11352539 C73.06161621 0.72252686 72.89935547 1.33152832 72.73217773 1.95898438 C72.15056477 4.42427468 72.09124166 6.64492665 72.09887695 9.17602539 C72.09629883 10.03325195 72.0937207 10.89047852 72.09106445 11.77368164 C72.1302256 14.2691674 72.1302256 14.2691674 73.22387695 17.11352539 C72.27618439 17.12383286 71.32849182 17.13414032 70.3520813 17.14476013 C61.43465577 17.24238331 52.51730175 17.34510673 43.59999275 17.45286465 C39.0151729 17.50810315 34.43034668 17.56152464 29.84545898 17.61083984 C25.42340302 17.65846971 21.00142596 17.71081202 16.57946396 17.76646614 C14.88973828 17.78689594 13.19999096 17.80560798 11.5102272 17.82259941 C9.14923504 17.84662961 6.78839263 17.87668595 4.42749023 17.90820312 C3.37229187 17.91683632 3.37229187 17.91683632 2.29577637 17.92564392 C-1.36365582 17.93841097 -1.36365582 17.93841097 -4.77612305 19.11352539 C-5.10612305 39.90352539 -5.43612305 60.69352539 -5.77612305 82.11352539 C-11.22112305 82.60852539 -11.22112305 82.60852539 -16.77612305 83.11352539 C-20.2705194 84.050876 -20.2705194 84.050876 -22.77612305 85.11352539 C-22.86904785 76.12489443 -22.94000142 67.13643034 -22.98337173 58.14742279 C-23.00419367 53.97286438 -23.03241156 49.79863606 -23.07788086 45.62426758 C-23.1215327 41.59124026 -23.14530068 37.55852925 -23.15563202 33.52528381 C-23.1629889 31.99116542 -23.17735497 30.45706317 -23.19904327 28.92308044 C-23.4017598 13.98296923 -23.4017598 13.98296923 -18.77612305 7.11352539 C-16.7409668 5.05493164 -16.7409668 5.05493164 -14.71362305 3.67602539 C-14.04202148 3.20293945 -13.37041992 2.72985352 -12.6784668 2.24243164 C-8.55512454 -0.20447989 -4.63357724 -0.02231242 0 0 Z " fill="#CFB0DE" transform="translate(22.776123046875,-0.113525390625)"/>
<path d="M0 0 C0.77722412 0.32524658 1.55444824 0.65049316 2.35522461 0.9855957 C4.99848109 1.99941742 6.7601099 2.24111094 9.5625 2.1875 C10.30628906 2.18105469 11.05007812 2.17460938 11.81640625 2.16796875 C13.98325371 2.00128818 15.90313916 1.5507934 18 1 C18.09285808 11.42284578 18.16384514 21.84559244 18.20724869 32.26876831 C18.22808485 37.10917823 18.25632966 41.94930423 18.30175781 46.78955078 C18.34535758 51.46447524 18.36916696 56.13912734 18.37950897 60.8142395 C18.38687504 62.59396652 18.40125922 64.37367936 18.42292023 66.15328979 C18.45214278 68.65459906 18.45594825 71.15479632 18.45410156 73.65625 C18.46848267 74.38489761 18.48286377 75.11354523 18.49768066 75.86427307 C18.45026865 81.83571239 16.71698511 87.12180983 12.55255508 91.5333252 C7.35617205 96.02389449 3.85934524 97.25127427 -2.97167969 97.22705078 C-3.6647673 97.22734283 -4.35785492 97.22763489 -5.07194519 97.22793579 C-7.35538392 97.22654608 -9.6384935 97.21100206 -11.921875 97.1953125 C-13.50799379 97.19158109 -15.09411489 97.18873472 -16.68023682 97.18673706 C-20.84940993 97.17911068 -25.01844311 97.15947078 -29.18756104 97.1373291 C-33.44403185 97.11684921 -37.70052534 97.10773076 -41.95703125 97.09765625 C-50.30475163 97.07622391 -58.65235839 97.04210002 -67 97 C-66.79503906 96.443125 -66.59007813 95.88625 -66.37890625 95.3125 C-64.56121505 90.16382446 -63.49429453 85.43723984 -63 80 C-62.22547989 79.98969254 -61.45095978 79.97938507 -60.65296936 79.96876526 C-53.36871079 79.87095703 -46.08454054 79.76846689 -38.80042362 79.66066074 C-35.05521202 79.60539769 -31.30999266 79.55197245 -27.56469727 79.50268555 C-23.95311414 79.45509165 -20.34162868 79.40275094 -16.73016167 79.34705925 C-15.34942481 79.32661306 -13.96866114 79.30790378 -12.58787727 79.29092598 C-10.66016686 79.2669322 -8.73254251 79.23629736 -6.80493164 79.20532227 C-5.15612755 79.18200584 -5.15612755 79.18200584 -3.47401428 79.15821838 C-1.05693927 79.27711808 -1.05693927 79.27711808 0 78 C0.09498646 75.56603981 0.12558417 73.16057048 0.11352539 70.72631836 C0.11367142 69.96539383 0.11381744 69.2044693 0.1139679 68.42048645 C0.11326862 65.89357702 0.10547555 63.36674038 0.09765625 60.83984375 C0.09579212 59.0924941 0.0943682 57.34514393 0.09336853 55.59779358 C0.08954293 50.98968066 0.07971229 46.38159905 0.06866455 41.77349854 C0.05845134 37.07491479 0.0538711 32.37632601 0.04882812 27.67773438 C0.03809005 18.45180913 0.02101313 9.22590716 0 0 Z " fill="#CFB0DE" transform="translate(162,83)"/>
</svg>
